<svg width="27" height="28" viewBox="0 0 27 28" fill="none" xmlns="http://www.w3.org/2000/svg">
    <path d="M22.8999 4.5465C20.4066 2.03984 17.0866 0.666504 13.5533 0.666504C6.27328 0.666504 0.339943 6.59984 0.339943 13.8798C0.339943 16.2132 0.953277 18.4798 2.09994 20.4798L0.233276 27.3332L7.23328 25.4932C9.16661 26.5465 11.3399 27.1065 13.5533 27.1065C20.8333 27.1065 26.7666 21.1732 26.7666 13.8932C26.7666 10.3598 25.3933 7.03984 22.8999 4.5465ZM13.5533 24.8665C11.5799 24.8665 9.64661 24.3332 7.95328 23.3332L7.55328 23.0932L3.39328 24.1865L4.49994 20.1332L4.23328 19.7198C3.13994 17.9732 2.55328 15.9465 2.55328 13.8798C2.55328 7.8265 7.48661 2.89317 13.5399 2.89317C16.4733 2.89317 19.2333 4.03984 21.2999 6.11984C23.3799 8.19984 24.5133 10.9598 24.5133 13.8932C24.5399 19.9465 19.6066 24.8665 13.5533 24.8665ZM19.5799 16.6532C19.2466 16.4932 17.6199 15.6932 17.3266 15.5732C17.0199 15.4665 16.8066 15.4132 16.5799 15.7332C16.3533 16.0665 15.7266 16.8132 15.5399 17.0265C15.3533 17.2532 15.1533 17.2798 14.8199 17.1065C14.4866 16.9465 13.4199 16.5865 12.1666 15.4665C11.1799 14.5865 10.5266 13.5065 10.3266 13.1732C10.1399 12.8398 10.2999 12.6665 10.4733 12.4932C10.6199 12.3465 10.8066 12.1065 10.9666 11.9198C11.1266 11.7332 11.1933 11.5865 11.2999 11.3732C11.4066 11.1465 11.3533 10.9598 11.2733 10.7998C11.1933 10.6398 10.5266 9.01317 10.2599 8.3465C9.99328 7.7065 9.71328 7.7865 9.51328 7.77317C9.31328 7.77317 9.09994 7.77317 8.87328 7.77317C8.64661 7.77317 8.29994 7.85317 7.99328 8.1865C7.69994 8.51984 6.84661 9.31984 6.84661 10.9465C6.84661 12.5732 8.03328 14.1465 8.19328 14.3598C8.35328 14.5865 10.5266 17.9198 13.8333 19.3465C14.6199 19.6932 15.2333 19.8932 15.7133 20.0398C16.4999 20.2932 17.2199 20.2532 17.7933 20.1732C18.4333 20.0798 19.7533 19.3732 20.0199 18.5998C20.2999 17.8265 20.2999 17.1732 20.2066 17.0265C20.1133 16.8798 19.9133 16.8132 19.5799 16.6532Z" fill="#1A374D"/>
</svg>
