<?xml version="1.0" standalone="no"?>
<!DOCTYPE svg PUBLIC "-//W3C//DTD SVG 20010904//EN"
 "http://www.w3.org/TR/2001/REC-SVG-20010904/DTD/svg10.dtd">
<svg version="1.0" xmlns="http://www.w3.org/2000/svg"
 width="512.000000pt" height="512.000000pt" viewBox="0 0 512.000000 512.000000"
 preserveAspectRatio="xMidYMid meet">
<metadata>
Created by potrace 1.14, written by Peter Selinger 2001-2017
</metadata>
<g transform="translate(0.000000,512.000000) scale(0.100000,-0.100000)"
fill="#000000" stroke="none">
<path d="M2379 5116 c-2 -2 -40 -6 -83 -10 -44 -4 -82 -8 -85 -10 -3 -2 -31
-7 -61 -11 -30 -3 -75 -11 -100 -17 -25 -5 -56 -12 -70 -14 -14 -3 -72 -18
-129 -35 -469 -135 -909 -415 -1221 -779 -64 -74 -76 -89 -143 -180 -208 -280
-367 -643 -436 -995 -40 -200 -46 -267 -45 -515 0 -183 3 -241 19 -345 3 -16
7 -43 9 -60 25 -176 102 -435 187 -625 81 -182 215 -404 325 -540 156 -192
307 -338 488 -474 320 -240 733 -415 1111 -471 22 -4 51 -8 65 -11 103 -19
473 -26 600 -12 147 17 153 18 250 38 30 6 66 13 80 16 81 15 341 100 430 140
583 265 1012 673 1288 1229 74 149 169 407 188 510 3 15 11 55 19 89 36 154
49 296 50 521 0 217 -11 339 -44 500 -6 28 -13 61 -15 75 -55 276 -217 639
-401 900 -414 583 -1032 963 -1735 1065 -19 3 -53 7 -75 11 -44 6 -460 15
-466 10z m241 -992 c15 -3 107 -88 230 -214 312 -316 1079 -1097 1239 -1260
79 -80 150 -158 158 -174 53 -102 -24 -236 -135 -236 -80 0 -92 8 -246 164
-428 434 -1061 1077 -1130 1148 -43 45 -95 89 -115 98 -41 21 -112 18 -146 -4
-28 -18 -6 4 -575 -575 -841 -855 -802 -818 -846 -825 -103 -17 -191 46 -199
142 -5 66 24 108 200 287 242 246 1094 1111 1271 1291 174 176 186 183 294
158z m-23 -719 c12 -9 109 -104 215 -211 106 -108 367 -372 579 -586 l386
-391 0 -581 c1 -319 -3 -591 -8 -603 -17 -45 -31 -47 -449 -47 -391 -1 -395
-1 -420 21 l-25 21 -5 351 c-5 348 -5 351 -28 373 -22 23 -25 23 -282 23 -256
0 -260 -1 -282 -23 -23 -22 -23 -25 -28 -372 -5 -346 -5 -350 -27 -372 l-23
-22 -392 -1 c-420 -1 -439 1 -457 48 -5 12 -8 284 -9 604 l0 582 283 289 c970
988 915 937 972 897z"/>
</g>
</svg>
